<?xml version="1.0" encoding="utf-8"?>
<!-- Generator: Adobe Illustrator 19.2.1, SVG Export Plug-In . SVG Version: 6.00 Build 0)  -->
<svg version="1.1" id="Ebene_1" xmlns="http://www.w3.org/2000/svg" xmlns:xlink="http://www.w3.org/1999/xlink" x="0px" y="0px"
	 viewBox="0 0 18 18" style="enable-background:new 0 0 18 18;" xml:space="preserve">
<g>
	<circle cx="9.562" cy="8.438" r="1.125"/>
	<circle cx="13.5" cy="8.438" r="1.125"/>
	<circle cx="5.625" cy="8.438" r="1.125"/>
	<path d="M9.562,0c-4.66,0-8.438,3.778-8.438,8.438c0,1.487,0.387,2.881,1.062,4.094L0,18l5.468-2.187
		c1.213,0.675,2.608,1.062,4.094,1.062c4.66,0,8.438-3.778,8.438-8.438S14.222,0,9.562,0z M9.562,15.75
		c-1.238,0-2.465-0.318-3.547-0.92l-0.468-0.26L5.05,14.768l-3.031,1.212l1.212-3.031l0.199-0.497l-0.26-0.468
		c-0.602-1.082-0.92-2.309-0.92-3.547c0-4.032,3.28-7.312,7.312-7.312s7.312,3.28,7.312,7.312S13.595,15.75,9.562,15.75z"/>
</g>
</svg>
