<?xml version="1.0" encoding="utf-8"?>
<!-- Generator: Adobe Illustrator 21.0.0, SVG Export Plug-In . SVG Version: 6.00 Build 0)  -->
<svg version="1.1" id="Layer_1" xmlns="http://www.w3.org/2000/svg" xmlns:xlink="http://www.w3.org/1999/xlink" x="0px" y="0px"
	 viewBox="0 0 18 18" style="enable-background:new 0 0 18 18;" xml:space="preserve">
<path d="M5.8,16.5c6.7,0,10.4-5.6,10.4-10.4c0-0.2,0-0.3,0-0.5c0.7-0.5,1.3-1.2,1.8-1.9c-0.7,0.3-1.4,0.5-2.1,0.6
	c0.8-0.5,1.3-1.2,1.6-2C16.8,2.7,16,3,15.2,3.1C14.5,2.4,13.6,2,12.5,2c-2,0-3.7,1.6-3.7,3.7c0,0.3,0,0.6,0.1,0.8
	c-3-0.2-5.7-1.6-7.5-3.8C1.1,3.2,0.9,3.8,0.9,4.5c0,1.3,0.6,2.4,1.6,3c-0.6,0-1.2-0.2-1.7-0.5c0,0,0,0,0,0c0,1.8,1.3,3.2,2.9,3.6
	c-0.3,0.1-0.6,0.1-1,0.1c-0.2,0-0.5,0-0.7-0.1c0.5,1.5,1.8,2.5,3.4,2.5c-1.3,1-2.8,1.6-4.5,1.6c-0.3,0-0.6,0-0.9-0.1
	C1.8,15.8,3.7,16.5,5.8,16.5" fill="#ffffff" />
</svg>
