<?xml version="1.0" encoding="utf-8"?>
<!-- Generator: Adobe Illustrator 19.2.1, SVG Export Plug-In . SVG Version: 6.00 Build 0)  -->
<svg version="1.1" id="Layer_1" xmlns="http://www.w3.org/2000/svg" xmlns:xlink="http://www.w3.org/1999/xlink" x="0px" y="0px"
	 viewBox="0 0 18 18" style="enable-background:new 0 0 18 18;" xml:space="preserve">
<path d="M17.6,4.8c-0.2-0.8-0.8-1.4-1.6-1.6c-1.4-0.4-7-0.4-7-0.4s-5.6,0-7,0.4C1.2,3.4,0.6,4.1,0.4,4.8C0,6.3,0,9.2,0,9.2
	s0,2.9,0.4,4.4C0.6,14.3,1.2,15,2,15.2c1.4,0.4,7,0.4,7,0.4s5.6,0,7-0.4c0.8-0.2,1.4-0.8,1.6-1.6C18,12.1,18,9.2,18,9.2
	S18,6.3,17.6,4.8z M7.2,11.9V6.5l4.7,2.7L7.2,11.9z" fill="#ffffff" />
</svg>
